# xmcd CD database file
#
# Track frame offsets:
#	150
#	23625
#	50068
#	78779
#	104301
#	147857
#	165997
#	188873
#	211435
#	237022
#	276640
#	293207
#
# Disc length: 4309 seconds
#
# Revision: 0
# Processed by: cddbd v1.5.1PL0 Copyright (c) Steve Scherf et al.
# Submitted via: CDex 1.51
#
DISCID=a710d30c
DTITLE=Various Artist - Pro Bono Publico
DYEAR=2002
DGENRE=Rock
TTITLE0=Settling Dust
TTITLE1=M〓blera Rum
TTITLE2=Engel Korrigiert
TTITLE3=Kite
TTITLE4=Sleep and Fall
TTITLE5=Akka
TTITLE6=Here/There
TTITLE7=Evil House, Evil Day
TTITLE8=And Five
TTITLE9=2 Streams
TTITLE10=In Real Life I Am Useless
TTITLE11=Est Plus
EXTD=YEAR: 2002
EXTT0=
EXTT1=
EXTT2=
EXTT3=
EXTT4=
EXTT5=
EXTT6=
EXTT7=
EXTT8=
EXTT9=
EXTT10=
EXTT11=
PLAYORDER=
